<svg width="32" height="32" viewBox="0 0 32 32" fill="none" xmlns="http://www.w3.org/2000/svg">
<circle cx="16" cy="16" r="16" fill="#E65609"/>
<path fill-rule="evenodd" clip-rule="evenodd" d="M23 8H18.82C18.4 6.84 17.3 6 16 6C14.7 6 13.6 6.84 13.18 8H9C7.9 8 7 8.9 7 10V24C7 25.1 7.9 26 9 26H23C24.1 26 25 25.1 25 24V10C25 8.9 24.1 8 23 8ZM16 8C16.55 8 17 8.45 17 9C17 9.55 16.55 10 16 10C15.45 10 15 9.55 15 9C15 8.45 15.45 8 16 8ZM11 22H18V20H11V22ZM21 18H11V16H21V18ZM11 14H21V12H11V14Z" fill="white"/>
</svg>
